# xmcd
#
# Track frame offsets: 
#        150
#        13758
#        31326
#        42430
#        60070
#        73866
#        99082
#        115758
#        165398
#        179946
#        194646
#        202522
#
# Disc length: 2895 seconds
#
# Revision: 0
# Processed by: cddbd v1.5.2PL0 Copyright (c) Steve Scherf et al.
# Submitted via: ExactAudioCopy v0.95b4
#
DISCID=990b4d0c
DTITLE=Emmylou Harris - Elite Hotel
DYEAR=1975
DGENRE=Country
TTITLE0=Amarillo
TTITLE1=Together Again
TTITLE2=Feelin' Single -- Seein' Double
TTITLE3=Sin City
TTITLE4=One Of These Days
TTITLE5=Till I Gain Control Again
TTITLE6=Here, There And Everywhere
TTITLE7=Ooh! Las Vegas
TTITLE8=Sweet Dreams
TTITLE9=Jambalaya
TTITLE10=Satan's Jewel Crown
TTITLE11=Wheels
EXTD=
EXTT0=
EXTT1=
EXTT2=
EXTT3=
EXTT4=
EXTT5=
EXTT6=
EXTT7=
EXTT8=
EXTT9=
EXTT10=
EXTT11=
PLAYORDER=
